 <svg  version="1.0" xmlns="http://www.w3.org/2000/svg"  width="900.000000pt" height="345.000000pt" viewBox="0 0 900.000000 345.000000"  preserveAspectRatio="xMidYMid meet">  <g transform="translate(0.000000,345.000000) scale(0.100000,-0.100000)" fill="#ffffff" stroke="none"> <path d="M2530 3436 c0 -10 -16 -17 -45 -22 -75 -11 -128 -43 -226 -136 -51 -48 -76 -82 -103 -139 -20 -42 -36 -85 -36 -96 0 -10 -5 -24 -11 -30 -13 -13 -7 -240 8 -298 19 -73 70 -156 142 -231 68 -69 151 -124 190 -124 9 0 23 -6 29 -12 9 -9 59 -13 177 -13 118 0 167 4 176 13 7 6 20 12 28 12 21 0 101 40 101 51 0 5 6 9 14 9 39 0 196 214 196 268 0 10 5 23 12 30 9 9 12 57 13 155 0 170 -7 194 -90 332 -31 51 -72 92 -134 134 -20 14 -37 28 -39 33 -2 4 -11 8 -21 8 -9 0 -25 6 -36 14 -11 7 -35 17 -52 21 -19 3 -33 13 -33 21 0 11 -24 14 -130 14 -106 0 -130 -3 -130 -14z m167 -131 c19 -8 45 -15 57 -15 34 0 126 -51 167 -91 52 -53 95 -128 103 -182 4 -25 11 -49 17 -52 5 -4 9 -36 9 -72 0 -68 -18 -147 -50 -218 -43 -95 -162 -191 -250 -202 -28 -3 -53 -10 -56 -14 -7 -12 -91 -12 -98 0 -3 4 -29 11 -57 15 -98 13 -211 114 -253 227 -15 38 -19 71 -25 184 -2 34 18 165 29 190 23 52 82 124 125 152 63 42 107 63 135 63 14 0 43 7 65 15 22 8 41 14 43 15 1 0 19 -7 39 -15z"/> <path d="M3852 3408 c-14 -14 -17 -1034 -3 -1056 5 -9 26 -12 67 -10 l59 3 5 415 c3 268 9 414 15 414 11 -2 35 -37 348 -509 l212 -320 64 -3 c45 -2 67 1 72 10 10 15 12 1028 3 1052 -8 20 -113 23 -132 4 -9 -9 -12 -115 -12 -415 0 -222 -4 -403 -9 -403 -4 0 -28 30 -51 68 -49 76 -96 147 -161 242 -24 36 -48 73 -54 82 -5 10 -22 34 -36 55 -14 21 -75 112 -134 203 -60 91 -114 168 -119 172 -18 12 -121 9 -134 -4z"/> <path d="M5417 3413 c-16 -4 -17 -36 -15 -536 l3 -532 65 0 65 0 3 233 c2 186 5 232 16 232 7 0 40 -30 72 -67 32 -38 88 -100 124 -139 36 -39 105 -114 153 -167 l89 -97 79 0 c46 0 79 4 79 10 0 8 -59 81 -81 100 -3 3 -52 57 -109 120 -57 63 -132 144 -166 180 -76 79 -104 114 -104 130 0 7 14 29 31 49 52 59 169 189 240 265 36 39 88 96 114 126 27 30 53 58 58 61 5 4 7 14 4 23 -5 12 -21 16 -66 16 -33 0 -67 -3 -75 -6 -9 -3 -102 -104 -208 -223 -226 -254 -225 -254 -238 -246 -6 4 -10 95 -10 235 0 199 -2 229 -16 234 -17 7 -79 6 -107 -1z"/> <path d="M6807 3413 c-4 -3 -7 -246 -7 -540 l0 -533 284 0 284 0 4 45 c2 24 2 49 0 55 -2 6 -79 10 -211 10 -148 0 -210 3 -219 12 -15 15 -17 320 -2 349 10 18 23 19 188 19 97 0 183 4 190 9 9 5 12 24 10 52 l-3 44 -179 3 c-150 2 -183 5 -198 19 -16 14 -18 34 -18 168 0 105 4 156 13 168 10 15 39 17 217 19 l205 3 0 50 0 50 -276 3 c-151 1 -278 -1 -282 -5z"/> <path d="M7984 3406 c-3 -7 3 -29 14 -47 23 -42 108 -203 200 -380 38 -74 81 -156 96 -183 25 -48 26 -53 26 -237 0 -103 3 -194 6 -203 5 -12 20 -16 64 -16 51 0 58 2 64 23 3 12 6 104 6 205 l0 183 55 105 c30 57 80 152 111 212 31 59 83 158 116 221 68 127 67 131 -18 131 -65 0 -73 -10 -150 -169 -124 -260 -170 -346 -186 -349 -11 -2 -26 17 -48 64 -95 201 -205 421 -218 437 -19 22 -130 25 -138 3z"/> <path d="M357 3404 c-9 -9 -9 -1026 -1 -1048 5 -12 21 -16 69 -16 59 0 63 2 69 25 4 14 6 171 6 348 0 177 0 337 0 355 0 34 17 43 27 15 3 -10 19 -46 34 -81 16 -35 29 -65 29 -67 0 -2 18 -43 41 -92 22 -48 49 -106 59 -128 10 -22 32 -70 49 -108 17 -37 31 -69 31 -72 0 -3 20 -48 45 -100 l45 -96 47 3 c51 3 49 1 92 98 10 25 38 85 60 133 23 49 41 90 41 93 0 2 13 32 29 67 51 107 91 197 91 201 0 3 17 42 39 87 22 47 41 77 45 70 4 -6 7 -166 6 -356 0 -189 2 -356 6 -370 6 -23 10 -25 69 -25 57 0 63 2 69 23 9 34 7 1020 -3 1035 -5 9 -28 12 -77 10 -61 -3 -70 -6 -81 -28 -21 -40 -103 -220 -103 -225 0 -5 -9 -25 -89 -198 -17 -37 -31 -69 -31 -71 0 -3 -17 -42 -39 -88 -21 -46 -49 -108 -62 -138 -25 -58 -58 -120 -65 -120 -4 0 -104 207 -104 215 0 3 -16 40 -36 82 -19 43 -39 87 -44 98 -5 11 -30 64 -55 118 -25 54 -45 100 -45 103 0 5 -54 124 -88 194 l-27 55 -70 3 c-39 1 -74 0 -78 -4z"/> <path d="M270 1082 c-76 -30 -106 -50 -147 -96 -96 -109 -95 -270 2 -368 50 -51 94 -70 310 -133 112 -33 169 -69 191 -122 67 -157 -108 -299 -293 -237 -68 23 -112 69 -137 147 -5 15 -16 17 -73 15 -65 -3 -68 -4 -71 -30 -4 -36 38 -115 85 -159 77 -72 121 -88 258 -96 129 -8 221 22 303 100 56 54 77 110 76 209 0 82 -2 89 -34 136 -30 45 -114 112 -139 112 -6 0 -25 6 -43 14 -34 14 -83 29 -197 63 -45 13 -78 31 -112 61 l-49 44 0 65 c0 55 4 72 26 100 39 51 91 73 174 73 50 0 82 -6 109 -19 41 -22 95 -78 106 -110 6 -19 14 -21 76 -21 84 0 89 8 59 79 -26 60 -101 133 -167 163 -67 30 -247 35 -313 10z"/> <path d="M1795 1093 c-32 -7 -116 -44 -181 -81 -32 -18 -118 -116 -140 -160 -10 -20 -24 -44 -31 -52 -48 -60 -67 -367 -27 -424 8 -11 14 -27 14 -36 0 -43 88 -171 151 -221 122 -95 194 -118 364 -119 127 0 215 20 290 66 26 16 56 34 67 40 44 26 139 162 138 200 0 18 -25 24 -95 24 -59 0 -64 -2 -86 -31 -80 -107 -158 -159 -235 -159 -22 0 -45 -5 -52 -12 -9 -9 -21 -9 -50 0 -22 7 -53 12 -69 12 -73 0 -181 76 -238 164 -87 138 -86 357 1 491 63 96 113 131 246 170 77 23 170 9 267 -40 44 -22 69 -46 129 -125 23 -29 26 -30 102 -30 43 0 81 4 84 9 9 15 -48 113 -98 168 -54 60 -134 110 -215 136 -40 13 -86 17 -185 16 -72 -1 -140 -3 -151 -6z"/> <path d="M7155 1094 c-11 -3 -39 -12 -63 -20 -250 -83 -397 -333 -356 -609 7 -49 19 -106 26 -125 41 -109 153 -236 253 -284 191 -92 455 -66 606 60 68 57 148 172 134 194 -9 15 -142 12 -155 -2 -6 -7 -24 -32 -41 -55 -59 -83 -168 -133 -288 -133 -212 1 -354 122 -395 339 -28 146 8 292 99 399 33 40 108 86 173 107 80 26 210 18 283 -18 56 -27 144 -106 155 -139 3 -9 15 -20 27 -24 23 -7 139 -6 147 2 10 10 -48 101 -102 158 -94 102 -202 147 -368 152 -63 1 -124 0 -135 -2z"/> <path d="M3125 1078 c-3 -7 -4 -249 -3 -538 l3 -525 59 -3 c41 -2 62 1 67 10 10 15 12 1028 3 1052 -8 20 -122 23 -129 4z"/> <path d="M3967 1083 c-4 -3 -7 -244 -7 -534 0 -471 2 -528 16 -533 9 -3 137 -6 284 -6 247 0 270 1 277 17 11 23 9 71 -3 83 -5 5 -104 11 -219 12 l-210 3 0 185 0 185 193 3 192 2 0 55 0 55 -182 0 c-101 0 -189 4 -196 8 -9 7 -12 50 -10 183 l3 174 217 3 c160 2 217 6 220 15 3 6 3 31 0 55 l-4 42 -282 0 c-156 0 -286 -3 -289 -7z"/> <path d="M5227 1084 c-4 -4 -7 -245 -7 -535 l0 -529 23 -5 c13 -4 43 -5 68 -3 l44 3 3 410 c1 225 6 413 10 417 5 5 20 -8 34 -29 196 -294 464 -700 468 -708 12 -25 46 -71 60 -82 9 -8 39 -12 75 -10 l60 2 3 538 2 537 -64 0 c-49 0 -65 -4 -70 -16 -3 -9 -6 -195 -6 -415 0 -348 -2 -399 -15 -399 -8 0 -15 4 -15 9 0 10 -254 397 -403 614 -26 38 -47 70 -47 72 0 2 -19 32 -43 67 l-43 63 -65 3 c-36 2 -68 0 -72 -4z"/> <path d="M8448 564 c-2 -289 1 -532 5 -540 7 -12 54 -14 277 -14 l270 0 0 55 0 55 -198 0 c-141 0 -201 3 -210 12 -17 17 -17 339 0 356 8 8 62 12 179 12 91 0 181 3 198 6 29 6 31 9 31 49 0 55 0 55 -213 55 -97 0 -177 4 -188 10 -18 10 -19 23 -19 173 0 114 4 167 12 175 9 9 69 12 210 12 l198 0 0 55 0 55 -275 0 -275 0 -2 -526z"/> </g> </svg> 