 <svg  version="1.0" xmlns="http://www.w3.org/2000/svg"  width="1350.000000pt" height="870.000000pt" viewBox="0 0 1350.000000 870.000000"  preserveAspectRatio="xMidYMid meet">  <g transform="translate(0.000000,870.000000) scale(0.100000,-0.100000)" fill="#ffffff" stroke="none"> <path d="M10880 8023 c-1 -5 -121 -131 -268 -281 -196 -200 -273 -272 -290 -272 -13 0 -57 16 -98 35 -41 19 -79 35 -84 35 -5 0 -30 7 -56 16 -75 25 -227 21 -327 -10 -87 -27 -161 -66 -139 -73 7 -3 18 0 25 6 7 5 62 18 121 27 89 14 120 15 171 5 34 -6 73 -11 86 -11 13 0 37 -7 53 -15 15 -8 32 -15 37 -15 5 0 31 -10 58 -21 51 -23 73 -51 62 -82 -4 -10 -96 -108 -206 -217 -160 -160 -205 -200 -226 -200 -15 0 -65 16 -111 36 -167 72 -196 78 -378 77 -157 0 -170 -2 -255 -30 -137 -47 -254 -107 -335 -172 -20 -16 -21 -21 -8 -21 9 0 19 4 23 10 3 5 20 14 38 19 18 5 57 19 87 31 30 11 102 30 160 42 156 30 291 22 470 -29 30 -9 64 -22 75 -28 11 -7 32 -15 47 -19 31 -7 52 -38 43 -65 -5 -16 -225 -225 -390 -372 -27 -24 -61 -55 -75 -67 -14 -13 -39 -30 -57 -38 -29 -12 -36 -11 -90 12 -32 15 -71 31 -88 36 -246 74 -405 91 -595 64 -207 -30 -394 -99 -565 -208 -51 -32 -182 -137 -214 -172 -31 -33 -13 -33 36 0 95 65 291 145 423 173 30 7 75 17 100 23 72 17 317 22 385 8 33 -7 83 -16 112 -20 55 -9 97 -21 181 -54 42 -16 52 -24 50 -40 -3 -23 -70 -77 -168 -137 -36 -21 -72 -44 -80 -49 -68 -43 -166 -100 -172 -100 -4 0 -26 -13 -50 -29 -78 -52 -445 -241 -638 -328 -30 -14 -77 -35 -105 -48 -163 -76 -559 -241 -750 -314 -179 -67 -216 -79 -235 -74 -22 6 -35 45 -45 133 -3 30 -10 91 -15 135 -5 44 -14 127 -20 185 -13 125 -36 234 -86 410 -46 158 -144 291 -239 323 -64 22 -93 21 -162 -4 -88 -34 -176 -126 -241 -254 -57 -113 -97 -213 -122 -310 -12 -44 -25 -91 -29 -105 -12 -36 -31 -120 -41 -182 -5 -29 -19 -102 -30 -163 -41 -223 -72 -827 -51 -1015 6 -52 15 -180 21 -285 5 -104 14 -221 20 -260 9 -65 16 -102 56 -290 103 -477 444 -745 753 -590 95 47 116 41 126 -37 21 -166 37 -280 47 -331 7 -38 9 -121 5 -240 -14 -420 -28 -1185 -22 -1227 15 -104 74 -160 170 -160 79 0 127 28 160 94 21 42 25 64 25 141 0 81 -3 97 -30 149 -49 93 -53 131 -30 245 17 85 20 138 20 364 0 145 4 289 10 318 12 70 91 226 142 284 44 50 103 85 143 85 54 0 121 -57 140 -120 4 -14 18 -47 30 -75 13 -27 30 -72 40 -100 10 -27 23 -63 30 -80 22 -54 42 -108 90 -240 132 -369 208 -561 270 -685 67 -131 190 -203 258 -150 25 20 27 27 27 91 0 47 -8 92 -25 141 -13 40 -42 129 -64 198 -36 112 -93 276 -164 475 -14 39 -47 122 -73 185 -25 63 -55 138 -66 165 -11 28 -55 123 -99 212 -86 175 -97 225 -62 283 20 35 26 37 231 106 253 84 450 137 481 129 44 -11 69 -33 76 -67 10 -48 40 -93 72 -108 103 -48 187 -21 232 75 44 95 11 229 -63 251 -12 3 -34 16 -51 28 -142 105 -382 111 -725 19 -99 -27 -254 -74 -295 -90 -174 -67 -308 -175 -425 -340 -28 -40 -60 -79 -73 -87 -37 -24 -76 -30 -104 -15 -56 30 -79 121 -93 361 -27 470 -52 607 -130 720 -58 85 -170 116 -235 64 l-30 -24 0 -134 c1 -115 4 -146 28 -228 49 -167 65 -233 71 -302 4 -37 9 -74 12 -82 3 -7 -3 -21 -12 -31 -17 -17 -19 -16 -40 10 -21 27 -24 28 -55 15 -48 -20 -196 -19 -234 2 -95 51 -191 212 -225 373 -5 22 -13 53 -19 68 -6 16 -11 43 -11 62 0 19 -5 46 -11 62 -17 44 -33 225 -33 378 -1 124 1 144 19 171 17 27 167 193 260 288 16 17 45 49 63 71 19 21 78 86 131 145 54 58 140 150 190 205 51 55 97 112 103 127 7 20 20 31 48 38 21 6 42 9 47 8 29 -7 339 41 413 64 19 7 53 15 75 18 60 11 136 31 172 46 17 8 37 14 44 14 7 0 31 6 54 14 22 7 63 21 90 29 319 100 710 266 892 380 21 13 45 27 53 30 8 4 27 15 41 25 15 9 55 35 90 56 74 46 94 60 287 201 143 105 177 120 202 90 19 -22 5 -55 -44 -105 -24 -25 -69 -77 -100 -115 -147 -180 -212 -262 -229 -285 -9 -14 -31 -43 -47 -65 -61 -81 -300 -432 -300 -440 0 -2 -13 -23 -29 -47 -42 -63 -136 -228 -198 -348 -31 -58 -58 -109 -62 -115 -4 -5 -58 -118 -121 -250 -101 -215 -164 -364 -156 -372 3 -4 218 286 471 637 105 145 137 189 299 410 158 215 208 283 326 445 68 94 133 182 145 196 11 15 58 79 104 142 92 127 118 148 154 128 23 -13 76 -78 137 -166 112 -163 194 -362 220 -535 27 -173 29 -244 14 -380 -8 -74 -22 -159 -30 -189 -41 -143 36 5 85 164 54 176 69 392 41 590 -16 119 -87 329 -146 435 -26 47 -80 127 -118 178 -39 52 -75 100 -81 107 -19 27 4 62 275 424 155 206 153 205 235 94 55 -75 145 -246 145 -275 0 -8 4 -18 9 -24 5 -5 19 -63 31 -128 18 -94 22 -139 17 -211 -4 -50 -9 -100 -13 -111 -6 -17 -5 -17 8 -4 9 8 24 49 34 90 26 101 26 382 0 449 -9 24 -16 52 -16 62 0 40 -88 205 -162 305 -21 28 -38 62 -38 75 0 21 23 56 145 219 14 19 59 81 100 137 80 111 117 143 143 126 50 -31 144 -240 158 -349 7 -57 20 -62 25 -9 9 91 -43 268 -113 386 -31 54 -37 71 -29 90 5 13 49 78 98 144 48 66 96 131 105 145 17 25 37 52 163 225 39 53 76 105 84 116 9 12 10 19 2 19 -6 0 -11 -3 -11 -7z m-4675 -2113 c47 -18 74 -56 104 -145 21 -62 47 -186 56 -265 12 -110 27 -392 21 -413 -3 -13 -68 -84 -143 -159 -300 -293 -328 -315 -351 -270 -12 21 3 422 17 477 6 22 11 81 11 130 0 50 5 106 11 125 6 19 14 64 19 100 30 224 102 398 172 419 44 12 52 13 83 1z"/> <path d="M785 7671 c-180 -55 -321 -162 -425 -323 -48 -74 -115 -244 -130 -333 -21 -118 -4 -441 30 -585 59 -252 129 -432 312 -810 176 -361 311 -698 358 -890 6 -25 20 -81 31 -125 33 -136 47 -221 68 -440 18 -181 13 -305 -19 -505 -30 -188 -106 -357 -198 -441 -86 -78 -116 -90 -235 -91 -100 0 -134 8 -207 52 -8 4 -39 22 -67 39 l-53 31 -14 -23 c-9 -12 -22 -40 -30 -62 -7 -22 -32 -82 -55 -134 -23 -52 -41 -103 -41 -113 0 -23 59 -60 181 -113 176 -77 242 -91 374 -77 205 23 392 154 522 367 35 57 104 209 125 275 67 207 98 408 98 645 0 137 -25 430 -40 470 -5 14 -10 42 -10 61 0 20 -5 44 -10 54 -6 10 -14 45 -19 77 -5 32 -19 90 -31 128 -12 39 -25 86 -30 105 -8 33 -15 56 -46 143 -55 151 -79 208 -163 390 -17 37 -31 69 -31 72 0 3 -27 61 -60 130 -33 69 -60 128 -60 130 0 3 -21 49 -46 103 -57 121 -102 218 -119 257 -7 17 -20 46 -28 65 -8 19 -22 53 -30 75 -8 22 -22 58 -30 80 -8 22 -22 65 -30 95 -9 30 -24 82 -34 115 -25 86 -25 356 1 435 42 126 92 195 174 238 37 19 58 22 157 22 103 0 120 -3 170 -26 45 -22 58 -24 70 -14 8 7 15 20 15 29 0 10 7 26 15 37 8 10 15 25 15 31 0 7 13 41 28 75 38 84 52 116 67 160 13 36 13 37 -18 55 -86 50 -185 73 -337 79 -81 3 -119 -1 -165 -15z"/> <path d="M5300 6241 c-8 -5 -39 -14 -69 -20 -118 -25 -273 -135 -354 -251 -54 -76 -98 -153 -119 -205 -106 -269 -136 -412 -183 -890 -17 -180 -21 -609 -5 -696 5 -30 14 -112 20 -184 29 -376 99 -636 233 -864 120 -203 306 -330 502 -342 l60 -4 3 125 2 125 -62 19 c-101 32 -216 121 -284 221 -58 84 -113 235 -146 395 -31 153 -58 507 -58 755 1 177 23 552 40 665 5 36 14 94 19 130 10 71 25 141 46 210 7 25 16 60 20 77 4 18 11 35 16 38 5 4 9 15 9 25 0 20 49 119 91 185 59 90 185 185 248 185 12 0 31 5 42 10 17 10 19 23 19 155 l0 145 -37 0 c-21 0 -45 -4 -53 -9z"/> <path d="M3443 6224 c-10 -4 -13 -40 -13 -129 l0 -123 178 -4 c281 -7 309 -29 319 -252 5 -94 3 -128 -8 -147 -8 -14 -51 -58 -96 -98 -91 -80 -205 -210 -301 -343 -63 -87 -208 -357 -223 -413 -4 -16 -15 -50 -24 -75 -75 -203 -125 -516 -125 -785 0 -355 73 -632 215 -815 106 -137 190 -187 375 -226 85 -18 465 -20 476 -2 12 18 13 3114 2 3179 -14 81 -63 141 -158 193 l-75 41 -265 2 c-146 1 -271 0 -277 -3z m471 -1206 c14 -20 16 -128 16 -959 0 -932 0 -936 -21 -963 -18 -22 -28 -26 -75 -26 -134 0 -241 102 -329 315 -24 55 -45 141 -45 181 -1 21 -7 66 -15 99 -20 82 -20 356 0 450 8 38 15 90 15 114 0 46 10 89 63 256 36 116 44 136 109 270 73 150 107 201 171 253 47 38 89 42 111 10z"/> <path d="M1708 6192 c-17 -3 -18 -119 -20 -2203 -2 -1210 0 -2209 4 -2220 7 -18 16 -19 160 -17 l153 3 5 508 5 509 25 19 c14 11 61 43 104 71 43 28 108 79 144 112 177 166 350 474 427 761 7 28 22 84 33 125 111 408 99 1228 -24 1610 -8 25 -14 54 -14 65 0 19 -84 233 -112 285 -95 178 -232 304 -380 351 -66 20 -94 23 -283 23 -115 1 -218 0 -227 -2z m398 -323 c62 -29 191 -170 236 -256 118 -225 143 -396 143 -973 0 -365 -10 -523 -39 -640 -46 -182 -62 -236 -99 -335 -22 -60 -56 -140 -74 -179 -54 -107 -162 -266 -197 -287 -65 -40 -61 -129 -64 1325 -1 849 1 1323 8 1340 12 31 30 33 86 5z"/> <path d="M10526 4844 c-14 -14 -16 -102 -16 -825 0 -540 3 -817 10 -830 9 -17 22 -19 103 -19 59 0 97 4 105 12 9 9 12 208 12 835 l0 823 -26 10 c-42 17 -170 12 -188 -6z"/> <path d="M12095 4810 c-4 -6 -7 -99 -6 -205 0 -107 -3 -205 -8 -218 -7 -18 -22 -26 -68 -36 -169 -37 -315 -206 -358 -415 -8 -39 -15 -118 -15 -176 1 -319 112 -508 332 -565 71 -19 223 -31 262 -21 l26 6 0 801 0 800 -32 14 c-50 20 -124 29 -133 15z m-16 -597 c11 -22 14 -847 3 -888 -11 -40 -38 -43 -106 -12 -95 44 -137 123 -163 307 -16 116 -16 130 0 238 22 151 59 233 139 307 31 29 68 56 80 58 13 2 26 5 30 6 4 0 11 -7 17 -16z"/> <path d="M12468 4691 c-31 -27 -33 -34 -33 -91 0 -55 3 -64 28 -86 40 -34 105 -33 137 1 35 38 39 119 8 165 -20 29 -31 36 -65 38 -34 3 -47 -2 -75 -27z"/> <path d="M12988 4364 c-5 -4 -8 -24 -8 -45 l0 -37 121 -4 c113 -3 122 -5 140 -27 12 -15 19 -39 19 -66 0 -39 -3 -45 -37 -66 -200 -121 -284 -201 -351 -339 l-46 -95 0 -130 c-1 -150 12 -191 87 -268 79 -84 157 -106 364 -107 132 0 143 1 153 20 7 13 10 191 8 554 -3 518 -4 535 -23 556 -44 48 -70 54 -250 58 -93 2 -173 0 -177 -4z m270 -743 c2 -230 -1 -328 -9 -337 -29 -35 -128 -5 -191 57 -62 62 -83 129 -75 246 4 71 10 94 46 165 62 123 139 201 195 196 l31 -3 3 -324z"/> <path d="M10902 4348 c-16 -16 -17 -1119 -2 -1149 9 -16 22 -19 84 -19 58 0 75 3 80 16 3 9 6 242 6 518 0 390 3 506 13 520 10 14 26 16 102 14 l90 -3 5 -530 c3 -291 6 -531 8 -532 1 -2 36 -3 77 -3 64 0 76 3 85 20 7 14 10 186 8 544 -3 513 -3 525 -24 553 -38 51 -94 62 -319 63 -144 0 -204 -3 -213 -12z"/> <path d="M12445 4348 c-3 -7 -4 -274 -3 -593 l3 -580 70 -3 c39 -1 77 2 85 8 13 8 15 85 18 574 2 394 0 571 -8 586 -9 17 -21 20 -86 20 -50 0 -76 -4 -79 -12z"/> <path d="M9703 4160 c-46 -28 -55 -52 -55 -154 0 -71 6 -111 27 -181 15 -49 31 -110 36 -134 5 -25 13 -59 18 -75 37 -120 83 -366 101 -531 32 -306 34 -369 17 -441 -26 -104 -25 -104 -248 -104 -163 0 -192 -2 -230 -19 -67 -30 -157 -108 -226 -196 -78 -101 -115 -171 -137 -260 -9 -38 -22 -88 -27 -109 -6 -21 -14 -60 -19 -85 -4 -25 -15 -77 -24 -116 -53 -226 -55 -243 -45 -380 14 -197 38 -308 107 -500 101 -280 275 -538 398 -590 56 -24 165 -17 224 13 61 32 135 106 171 172 69 126 182 429 211 565 19 92 47 112 72 52 28 -69 89 -85 235 -64 58 9 167 23 241 32 128 15 204 24 365 45 39 5 129 17 200 25 72 9 153 20 180 25 28 5 140 14 250 20 110 6 227 12 260 14 103 6 160 51 160 127 0 55 -31 82 -114 102 -38 10 -82 17 -97 17 -45 0 -339 -30 -439 -45 -126 -19 -390 -46 -452 -45 -52 0 -72 11 -93 50 -6 12 -7 27 -1 42 11 29 84 100 176 174 39 30 93 74 120 96 28 22 139 126 248 232 219 211 256 260 309 412 35 101 47 223 29 291 -29 106 -113 177 -253 214 -64 17 -112 19 -430 19 -388 0 -397 -1 -432 -54 -36 -55 -11 -128 56 -162 54 -28 203 -44 417 -44 232 0 265 -8 310 -75 20 -30 23 -43 18 -89 -6 -62 -10 -70 -131 -231 -100 -132 -273 -311 -441 -455 -60 -52 -135 -118 -165 -147 -64 -61 -206 -167 -317 -237 -43 -28 -107 -79 -142 -113 -73 -73 -98 -77 -87 -15 4 20 11 62 15 92 5 30 15 91 24 135 8 44 20 114 26 155 6 41 15 107 21 145 18 118 34 401 34 580 0 286 -20 539 -71 900 -14 99 -29 214 -33 255 -5 41 -18 111 -29 155 -11 44 -27 118 -36 165 -41 222 -71 283 -159 324 -65 31 -100 33 -143 6z m85 -1849 c53 -27 71 -50 82 -112 12 -63 -1 -280 -26 -424 -44 -261 -96 -514 -121 -593 -7 -23 -13 -52 -13 -63 0 -12 -6 -44 -14 -72 -7 -29 -21 -86 -30 -127 -35 -154 -50 -206 -67 -242 -18 -35 -55 -68 -92 -81 -28 -10 -98 25 -136 68 -36 42 -93 156 -111 226 -6 24 -16 58 -21 74 -44 140 -99 461 -99 576 0 167 69 387 178 564 35 57 120 143 167 168 104 57 234 73 303 38z"/> <path d="M8413 2330 c-17 -10 -37 -28 -42 -39 -16 -29 -13 -208 4 -289 36 -175 45 -276 45 -531 0 -236 2 -258 20 -288 58 -96 220 -87 263 14 29 69 40 142 33 219 -4 40 -11 201 -16 356 -12 362 -28 445 -99 521 -53 57 -148 74 -208 37z"/> </g> </svg> 